<svg width="42" height="32" viewBox="0 0 42 32" fill="none" xmlns="http://www.w3.org/2000/svg">
  <!-- Document Body -->
  <path opacity="0.15" fill-rule="evenodd" clip-rule="evenodd" d="M1.5 6.89825C1.5 5.79369 2.39543 4.89825 3.5 4.89825H38.3C39.4046 4.89825 40.3 5.79369 40.3 6.89825V27.8871C40.3 28.9917 39.4046 29.8871 38.3 29.8871H24.2108C28.4393 28.5311 31.5 24.5686 31.5 19.8916C31.5 14.0952 26.799 9.39625 21 9.39625C15.201 9.39625 10.5 14.0952 10.5 19.8916C10.5 24.5686 13.5607 28.5311 17.7892 29.8871H3.5C2.39543 29.8871 1.5 28.9917 1.5 27.8871V6.89825ZM21 24.8894C23.7614 24.8894 26 22.6518 26 19.8916C26 17.1314 23.7614 14.8938 21 14.8938C18.2386 14.8938 16 17.1314 16 19.8916C16 22.6518 18.2386 24.8894 21 24.8894Z" fill="url(#paint0_linear)"/>

  <!-- UI/UX Designer Icon -->
  <!-- You can replace this with your desired icon -->
  <path d="M10.5 16.5C10.5 18.7091 8.70914 20.5 6.5 20.5C4.29086 20.5 2.5 18.7091 2.5 16.5C2.5 14.2909 4.29086 12.5 6.5 12.5C8.70914 12.5 10.5 14.2909 10.5 16.5Z" fill="#F7931A"/>
  <path d="M21 12.5C23.2091 12.5 25 14.2909 25 16.5C25 18.7091 23.2091 20.5 21 20.5C18.7909 20.5 17 18.7091 17 16.5C17 14.2909 18.7909 12.5 21 12.5Z" fill="#F7931A"/>
  <path d="M35.5 14.5C35.5 16.7091 33.7091 18.5 31.5 18.5C29.2909 18.5 27.5 16.7091 27.5 14.5C27.5 12.2909 29.2909 10.5 31.5 10.5C33.7091 10.5 35.5 12.2909 35.5 14.5Z" fill="#F7931A"/>

  <!-- Gradients -->
  <defs>
    <linearGradient id="paint0_linear" x1="3.69867" y1="4.89825" x2="22.5688" y2="37.2522" gradientUnits="userSpaceOnUse">
      <stop offset="0.259336" stop-color="#FFDB6E"/>
      <stop offset="1" stop-color="#FFBC5E"/>
    </linearGradient>
  </defs>
</svg>
